<svg width="1563" height="2003" viewBox="0 0 1563 2003" fill="none" xmlns="http://www.w3.org/2000/svg">
<path fill-rule="evenodd" clip-rule="evenodd" d="M1299.62 10.711C1457.93 10.711 1548.26 143.016 1548.26 285.865V1204.52C1548.26 1347.32 1441.8 1456.23 1297.93 1457.22L597.96 1458.59C564.475 1487.15 438.889 1601.26 360.687 1681.51C332.272 1710.63 297.019 1741.71 263.376 1741.71C255.939 1741.71 248.562 1740.18 241.404 1736.8C203.864 1719.15 207.522 1666.61 208.616 1656.21L226.591 1445.1C104.027 1428.16 9.26221 1319.45 9.26221 1188.41V269.749C9.26221 126.901 121.784 10.764 260.095 10.764" fill="url(#paint0_linear_34_25)"/>
<path fill-rule="evenodd" clip-rule="evenodd" d="M573.253 1127.41L766.15 1021.64C807.83 1086.58 866.42 1147.38 943.44 1176.91C1064.63 1223.4 1292.44 1215.04 1273.32 1047.31C1259.72 928.13 1048.26 904.45 949.96 876.45C782.39 828.72 644.96 753.144 625.06 577.718C598.41 342.474 785.33 199.129 1025.76 188.505C1198.85 180.871 1354.09 227.454 1465.59 352.709C1471.19 359.016 1498.44 389.95 1496.67 395.426L1307.54 515.752C1302.18 517.081 1290.67 500.03 1286.71 496.265C1241.2 453.002 1193.76 425.462 1129.48 411.511C1028.64 389.668 858.35 404.485 866.2 532.341C873.79 655.828 1079.72 674.631 1179.67 702.795C1341.59 748.393 1491.31 817.93 1519.45 987.82C1593.8 1436.77 933.92 1533.71 662.66 1256.6C626.33 1219.53 594.59 1173.39 573.313 1127.47L573.253 1127.41Z" fill="white"/>
<path fill-rule="evenodd" clip-rule="evenodd" d="M623.25 1514.77H711.41V1880.13C711.41 1906.87 723.46 1920.2 747.58 1920.2C752.39 1920.2 757.98 1919.31 764.34 1917.54C770.7 1915.77 776.73 1913.84 782.42 1911.62L794.25 1981.98C782.42 1987.65 768.58 1992.02 752.83 1995.12C737.06 1998.16 722.8 1999.71 710.08 1999.71C682.48 1999.71 661.07 1992.36 645.93 1977.71C630.78 1963.08 623.25 1942.13 623.25 1914.94V1514.71V1514.77Z" fill="black"/>
<path fill-rule="evenodd" clip-rule="evenodd" d="M926.48 2001.71C909.76 2001.71 894.09 1998.92 879.61 1993.42C865.06 1987.93 852.51 1980.21 841.95 1970.3C831.41 1960.4 823.14 1948.78 817.18 1935.61C811.25 1922.38 808.25 1907.88 808.25 1891.99C808.25 1876.1 811.85 1860.59 819.14 1846.69C826.42 1832.8 836.52 1821.02 849.51 1811.34C862.51 1801.68 878 1794.05 896.04 1788.55C914.09 1783.06 933.92 1780.28 955.47 1780.28C970.84 1780.28 985.95 1781.61 1000.71 1784.21C1015.48 1786.89 1028.53 1790.6 1040.02 1795.44V1775.6C1040.02 1752.71 1033.52 1735.08 1020.55 1722.74C1007.55 1710.41 988.28 1704.24 962.73 1704.24C944.24 1704.24 926.2 1707.51 908.6 1714.12C890.99 1720.74 872.95 1730.42 854.46 1743.21L827.36 1687C871.84 1657.49 919.8 1642.71 971.34 1642.71C1022.88 1642.71 1059.74 1654.93 1087.23 1679.39C1114.71 1703.84 1128.49 1739.19 1128.49 1785.5V1893.26C1128.49 1902.5 1130.27 1909.11 1133.77 1913.11C1137.27 1917.06 1143.42 1919.28 1152.25 1919.72V1995.09C1143.86 1996.87 1136.1 1998.1 1128.82 1998.7C1121.55 1999.37 1115.28 1999.71 1109.99 1999.71C1093.29 1999.27 1080.52 1995.43 1071.68 1988.15C1062.85 1980.87 1057.36 1971.09 1055.19 1958.75L1053.2 1939.57C1037.75 1959.86 1019.1 1975.25 997.05 1985.81C975 1996.36 951.47 2001.65 926.42 2001.65L926.48 2001.71ZM951.57 1936.95C966.51 1936.95 980.72 1934.28 994.15 1929C1007.59 1923.74 1018.03 1916.68 1025.54 1907.82C1035.19 1900.32 1040.08 1891.99 1040.08 1882.71V1843.02C1029.54 1839.07 1018.03 1835.86 1005.76 1833.46C993.45 1831.02 981.56 1829.85 970.11 1829.85C947.24 1829.85 928.53 1835.01 913.99 1845.42C899.42 1855.75 892.22 1868.88 892.22 1884.77C892.22 1899.78 897.93 1912.22 909.36 1922.12C920.81 1932 934.91 1937.01 951.63 1937.01L951.57 1936.95Z" fill="black"/>
<path fill-rule="evenodd" clip-rule="evenodd" d="M1397.71 2001.61C1371.32 2001.61 1347.83 1995.67 1327.14 1983.84C1306.46 1972 1290.23 1955.78 1278.36 1935.16V1995.01H1201.25V1514.71H1289.63V1710.78C1301.92 1689.69 1318.05 1673.36 1338.06 1661.75C1358.07 1650.14 1381.26 1644.33 1407.65 1644.33C1430.03 1644.33 1450.61 1649.14 1469.29 1658.82C1487.96 1668.49 1503.98 1681.39 1517.4 1697.65C1530.81 1713.87 1541.13 1732.95 1548.39 1754.91C1555.65 1776.88 1559.25 1799.88 1559.25 1824.01C1559.25 1848.14 1555.21 1872.25 1547.07 1893.78C1538.9 1915.3 1527.6 1933.99 1513.14 1950.03C1498.61 1966.09 1481.48 1978.65 1461.69 1987.88C1441.9 1997.12 1420.62 2001.71 1397.71 2001.71V2001.61ZM1373.31 1926.58C1387.41 1926.58 1400.26 1923.87 1411.91 1918.33C1423.55 1912.86 1433.63 1905.49 1442.22 1896.32C1450.83 1887.14 1457.42 1876.36 1462.03 1864.06C1466.62 1851.78 1468.95 1838.62 1468.95 1824.58C1468.95 1810.51 1466.74 1797.19 1462.35 1784.45C1457.97 1771.73 1451.71 1760.56 1443.57 1750.88C1435.4 1741.24 1425.87 1733.56 1414.91 1727.86C1403.93 1722.17 1391.84 1719.29 1378.64 1719.29C1358.85 1719.29 1341.17 1725.77 1325.59 1738.71C1309.96 1751.65 1297.99 1767.53 1289.67 1786.4V1868.67C1292.72 1877.46 1297.27 1885.31 1303.2 1892.33C1309.14 1899.36 1315.83 1905.39 1323.31 1910.43C1330.8 1915.46 1338.9 1919.44 1347.71 1922.26C1356.52 1925.14 1365.07 1926.52 1373.44 1926.52L1373.31 1926.58Z" fill="black"/>
<path fill-rule="evenodd" clip-rule="evenodd" d="M1307.54 4.70703C1467.81 4.70703 1559.25 138.694 1559.25 283.358V1213.69C1559.25 1358.3 1451.48 1468.59 1305.83 1469.6L597.22 1470.99C563.32 1499.91 436.184 1615.47 357.016 1696.74C328.251 1726.23 292.562 1757.71 258.504 1757.71C250.976 1757.71 243.508 1756.16 236.261 1752.74C198.257 1734.86 201.961 1681.65 203.068 1671.12L221.265 1457.32C97.188 1440.18 1.25293 1330.08 1.25293 1197.37V267.037C1.25293 122.374 115.164 4.76103 255.182 4.76103M254.739 67.33C149.564 67.33 63.713 156.894 63.713 266.983V1197.37C63.713 1307.46 161.078 1401.17 266.576 1401.17L288.758 1401.55L265.307 1677.1C264.865 1681.91 264.965 1687.51 265.468 1692C273.379 1687.79 288.154 1677.6 312.107 1652.99C405.749 1556.89 567.728 1411.07 574.21 1405.6L1305.16 1406.3C1410.66 1406.3 1496.63 1306.58 1496.63 1213.63V283.358C1496.63 173.269 1413.44 67.33 1307.94 67.33H254.78H254.739Z" fill="black"/>
<defs>
<linearGradient id="paint0_linear_34_25" x1="778.761" y1="10.711" x2="778.761" y2="1741.71" gradientUnits="userSpaceOnUse">
<stop stop-color="#089E8D" stop-opacity="0.88"/>
<stop offset="1" stop-color="#FE00BE" stop-opacity="0.73"/>
</linearGradient>
</defs>
</svg>
